<svg width="204" height="62" viewBox="0 0 204 62" fill="none" xmlns="http://www.w3.org/2000/svg">
<path d="M25.3889 61.704C24.8769 61.704 24.4609 61.608 24.1409 61.416C23.8209 61.288 23.6929 60.968 23.7569 60.456C23.7569 60.264 23.8529 59.976 24.0449 59.592C24.2369 59.208 24.3649 58.92 24.4289 58.728C24.7489 57.832 25.0369 56.936 25.2929 56.04C25.5489 55.08 25.8049 54.184 26.0609 53.352C26.9569 49.832 27.7889 46.344 28.5569 42.888C29.3249 39.368 29.9329 35.848 30.3809 32.328C30.6369 30.28 30.9569 27.528 31.3409 24.072C31.7249 20.552 31.9169 17.16 31.9169 13.896C31.9169 12.616 31.8849 11.432 31.8209 10.344C31.7569 9.192 31.5969 8.168 31.3409 7.272C29.2289 7.272 27.1169 7.272 25.0049 7.272C22.8929 7.208 20.8129 7.17599 18.7649 7.17599C17.8049 7.17599 16.4609 7.24 14.7329 7.368C13.0689 7.496 11.3409 7.784 9.54888 8.232C7.82088 8.68 6.38088 9.416 5.22888 10.44C4.07688 11.464 3.56488 12.84 3.69288 14.568C3.75688 15.08 3.94888 15.784 4.26888 16.68C4.58888 17.512 4.81288 18.024 4.94088 18.216L3.88488 18.984C3.50088 18.28 3.02088 17.48 2.44488 16.584C1.86888 15.624 1.35688 14.696 0.908875 13.8C0.460875 12.904 0.204875 12.232 0.140875 11.784C0.076875 11.144 0.108875 10.312 0.236875 9.288C0.364875 8.264 0.876875 7.368 1.77288 6.6C2.73288 5.768 4.04488 5.224 5.70888 4.96799C7.43688 4.712 9.19688 4.584 10.9889 4.584C12.7169 4.584 14.3809 4.648 15.9809 4.776C17.5809 4.904 18.8929 4.96799 19.9169 4.96799C19.9169 4.96799 20.6529 4.96799 22.1249 4.96799C23.5969 4.96799 25.4529 4.96799 27.6929 4.96799C29.9969 4.904 32.4289 4.872 34.9889 4.872C37.5489 4.872 39.8849 4.872 41.9969 4.872L39.9809 7.368H33.2609C34.2209 9.16 34.8289 11.656 35.0849 14.856C35.4049 18.056 35.5649 21.128 35.5649 24.072C35.5649 25.288 35.5649 26.44 35.5649 27.528C35.5649 28.616 35.5329 29.576 35.4689 30.408C35.3409 33.416 34.9249 37.032 34.2209 41.256C33.5169 45.48 32.6209 49.48 31.5329 53.256C34.1569 49.544 37.3569 45.128 41.1329 40.008C44.9729 34.888 49.3569 29.576 54.2849 24.072C59.2769 18.504 64.7809 13.224 70.7969 8.232C72.0129 7.208 73.6129 6.056 75.5969 4.776C77.5809 3.496 79.6929 2.408 81.9329 1.512C84.1729 0.551996 86.2849 0.0719948 88.2689 0.0719948C90.1249 0.0719948 91.4049 0.391996 92.1089 1.032C92.8769 1.672 93.2609 2.504 93.2609 3.528C93.2609 4.744 92.8769 6.088 92.1089 7.56C91.4049 9.032 90.8609 10.248 90.4769 11.208C90.4129 11.4 90.1249 11.528 89.6129 11.592C89.1009 11.656 88.8769 11.56 88.9409 11.304C89.0689 10.792 89.1969 10.184 89.3249 9.48C89.5169 8.712 89.6129 7.944 89.6129 7.17599C89.6129 6.152 89.4209 5.224 89.0369 4.392C88.6529 3.56 87.9169 3.08 86.8289 2.952C86.6369 2.888 86.4449 2.856 86.2529 2.856C86.0609 2.856 85.8689 2.856 85.6769 2.856C83.8209 2.856 81.8049 3.496 79.6289 4.776C77.5169 5.992 75.0529 7.72 72.2369 9.96C66.8609 14.248 61.7409 18.984 56.8769 24.168C52.0769 29.288 47.4689 34.664 43.0529 40.296C40.7489 43.176 38.5089 46.088 36.3329 49.032C34.1569 51.976 32.1409 55.048 30.2849 58.248C30.1569 58.504 30.0289 58.792 29.9009 59.112C29.8369 59.496 29.7409 59.784 29.6129 59.976C29.4849 60.104 29.1009 60.296 28.4609 60.552C27.8209 60.872 27.1809 61.128 26.5409 61.32C25.9649 61.576 25.5809 61.704 25.3889 61.704ZM73.6851 20.328C72.7891 20.328 72.1491 20.04 71.7651 19.464C71.5091 19.144 71.3811 18.728 71.3811 18.216C71.3811 17.192 71.8611 16.36 72.8211 15.72C73.5251 15.336 74.1651 15.144 74.7411 15.144C75.7011 15.144 76.3731 15.432 76.7571 16.008C77.0131 16.328 77.1411 16.744 77.1411 17.256C77.1411 18.28 76.6291 19.112 75.6051 19.752C75.0291 20.136 74.3891 20.328 73.6851 20.328ZM56.9811 57.288C56.3411 57.288 55.7971 57.16 55.3491 56.904C54.9651 56.648 54.7731 56.168 54.7731 55.464C54.7731 54.568 54.9971 53.512 55.4451 52.296C55.9571 51.08 56.5011 49.864 57.0771 48.648C57.7171 47.432 58.1971 46.44 58.5171 45.672C58.9651 44.776 59.5091 43.624 60.1491 42.216C60.8531 40.744 61.4931 39.368 62.0691 38.088C62.7091 36.744 63.1571 35.816 63.4131 35.304C62.5171 36.264 61.4291 37.48 60.1491 38.952C58.9331 40.36 57.7811 41.736 56.6931 43.08C55.6051 44.424 54.7731 45.48 54.1971 46.248C54.0051 46.504 53.8451 46.632 53.7171 46.632C53.5891 46.632 53.5251 46.472 53.5251 46.152C53.5251 45.64 53.6851 45.16 54.0051 44.712C55.2211 43.176 56.5651 41.448 58.0371 39.528C59.5731 37.608 60.9491 35.848 62.1651 34.248C63.3811 32.584 64.1491 31.496 64.4691 30.984C65.1731 30.856 66.1971 30.664 67.5411 30.408C68.9491 30.152 69.9091 29.8 70.4211 29.352C70.6131 29.16 70.8051 29.064 70.9971 29.064C71.1251 29.064 71.1891 29.192 71.1891 29.448C71.2531 29.64 71.1891 29.864 70.9971 30.12C70.6131 30.568 69.9411 31.656 68.9811 33.384C68.0211 35.112 66.9971 37.032 65.9091 39.144C64.8851 41.192 63.9251 43.048 63.0291 44.712C62.1331 46.44 61.3651 48.104 60.7251 49.704C60.0851 51.304 59.7651 52.456 59.7651 53.16C59.7651 54.056 60.2131 54.504 61.1091 54.504C61.9411 54.504 62.9971 53.992 64.2771 52.968C65.6211 51.944 66.9651 50.728 68.3091 49.32C69.6531 47.848 70.8371 46.504 71.8611 45.288C72.1811 44.904 72.5651 44.456 73.0131 43.944C73.5251 43.368 73.8451 43.016 73.9731 42.888C74.1011 43.016 74.1651 43.24 74.1651 43.56C74.1011 44.008 73.9411 44.456 73.6851 44.904C73.4291 45.288 73.1731 45.64 72.9171 45.96C71.5731 47.624 70.1011 49.352 68.5011 51.144C66.9011 52.872 65.1411 54.344 63.2211 55.56C61.3011 56.712 59.2211 57.288 56.9811 57.288ZM72.7619 58.44C72.5059 58.44 72.5059 58.152 72.7619 57.576C73.0819 57 73.3699 56.36 73.6259 55.656C73.9459 54.952 74.2659 54.184 74.5859 53.352C75.2259 51.816 75.9299 50.088 76.6979 48.168C77.4659 46.248 78.2019 44.392 78.9059 42.6C79.6099 40.744 80.2179 39.176 80.7299 37.896C81.3059 36.552 81.6899 35.688 81.8819 35.304C80.9859 36.264 79.8979 37.48 78.6179 38.952C77.4019 40.36 76.2499 41.736 75.1619 43.08C74.0739 44.424 73.2419 45.48 72.6659 46.248C72.4739 46.504 72.3139 46.632 72.1859 46.632C72.0579 46.632 71.9939 46.472 71.9939 46.152C71.9939 45.64 72.1539 45.16 72.4739 44.712C73.6899 43.176 75.0339 41.448 76.5059 39.528C78.0419 37.608 79.4179 35.848 80.6339 34.248C81.8499 32.584 82.6179 31.496 82.9379 30.984C83.6419 30.856 84.6659 30.664 86.0099 30.408C87.4179 30.152 88.3779 29.8 88.8899 29.352C89.0819 29.16 89.2739 29.064 89.4659 29.064C89.5939 29.064 89.6579 29.192 89.6579 29.448C89.7219 29.64 89.6579 29.864 89.4659 30.12C89.0819 30.568 88.4099 31.624 87.4499 33.288C86.5539 34.888 85.5619 36.68 84.4739 38.664C83.4499 40.648 82.4899 42.44 81.5939 44.04C82.3619 43.016 83.1939 42.024 84.0899 41.064C84.9859 40.104 85.8499 39.176 86.6819 38.28C87.4499 37.512 88.5059 36.552 89.8499 35.4C91.1939 34.248 92.6019 33.192 94.0739 32.232C95.5459 31.272 96.8259 30.728 97.9139 30.6C98.1699 30.536 98.3939 30.504 98.5859 30.504C98.8419 30.504 99.0339 30.504 99.1619 30.504C100.57 30.504 101.274 31.016 101.274 32.04C101.274 32.808 100.858 33.832 100.026 35.112C99.5779 35.816 98.8739 37 97.9139 38.664C97.0179 40.264 96.0899 42.024 95.1299 43.944C94.2339 45.8 93.4339 47.56 92.7299 49.224C92.0899 50.824 91.7699 52.008 91.7699 52.776C91.7699 53.672 92.2179 54.12 93.1139 54.12C94.2019 54.12 95.3859 53.576 96.6659 52.488C98.0099 51.4 99.4499 50.024 100.986 48.36C102.522 46.632 104.058 44.808 105.594 42.888C105.722 43.016 105.786 43.24 105.786 43.56C105.786 44.008 105.626 44.456 105.306 44.904C105.05 45.288 104.794 45.64 104.538 45.96C103.898 46.792 103.034 47.848 101.946 49.128C100.922 50.344 99.8659 51.56 98.7779 52.776C97.6899 53.928 96.6979 54.856 95.8019 55.56C95.1619 56.008 94.3299 56.488 93.3059 57C92.2819 57.512 91.2579 57.768 90.2339 57.768C89.0819 57.768 88.2819 57.48 87.8339 56.904C87.3859 56.264 87.1619 55.496 87.1619 54.6C87.1619 53.576 87.3539 52.488 87.7379 51.336C88.1219 50.184 88.5379 49.096 88.9859 48.072C89.4979 46.984 89.8819 46.184 90.1379 45.672C91.2899 43.432 92.3459 41.32 93.3059 39.336C94.2659 37.352 94.9379 35.944 95.3219 35.112C95.5139 34.728 95.6099 34.408 95.6099 34.152C95.6099 33.704 95.2579 33.672 94.5539 34.056C93.8499 34.44 92.9859 35.016 91.9619 35.784C91.0019 36.552 90.1059 37.32 89.2739 38.088C88.4419 38.792 87.8979 39.272 87.6419 39.528C85.2739 42.024 83.1939 44.808 81.4019 47.88C79.6739 50.888 78.2019 53.992 76.9859 57.192C76.1539 57.256 75.3219 57.48 74.4899 57.864C73.6579 58.248 73.0819 58.44 72.7619 58.44ZM107.713 57.288C107.073 57.288 106.529 57.16 106.081 56.904C105.633 56.648 105.409 56.168 105.409 55.464C105.409 54.568 105.633 53.512 106.081 52.296C106.593 51.08 107.137 49.864 107.713 48.648C108.289 47.432 108.769 46.44 109.153 45.672C109.473 45.096 109.889 44.2 110.401 42.984C110.977 41.704 111.553 40.392 112.129 39.048C112.769 37.64 113.281 36.456 113.665 35.496C114.113 34.536 114.337 34.056 114.337 34.056C113.761 34.696 112.993 35.592 112.033 36.744C111.137 37.896 110.145 39.112 109.057 40.392C108.033 41.608 107.073 42.76 106.177 43.848C105.345 44.936 104.737 45.736 104.353 46.248C104.161 46.504 104.001 46.632 103.873 46.632C103.745 46.632 103.681 46.472 103.681 46.152C103.681 45.64 103.841 45.16 104.161 44.712C104.929 43.752 105.857 42.6 106.945 41.256C108.033 39.848 109.121 38.44 110.209 37.032C111.361 35.624 112.353 34.376 113.185 33.288C112.673 33.288 112.001 33.32 111.169 33.384C110.401 33.448 109.697 33.544 109.057 33.672C108.417 33.736 108.065 33.768 108.001 33.768C107.681 33.768 107.713 33.512 108.097 33C108.481 32.488 108.993 31.976 109.633 31.464C110.273 30.952 110.753 30.696 111.073 30.696C111.137 30.696 111.649 30.728 112.609 30.792C113.569 30.792 114.273 30.792 114.721 30.792C116.001 29.064 117.249 27.08 118.465 24.84C119.745 22.6 120.993 20.136 122.209 17.448C122.721 17.384 123.585 17.032 124.801 16.392C126.081 15.688 127.073 14.984 127.777 14.28C128.097 13.96 128.353 13.8 128.545 13.8C128.929 13.8 128.929 14.056 128.545 14.568C128.097 15.08 127.329 16.168 126.241 17.832C125.153 19.432 123.937 21.384 122.593 23.688C121.249 25.928 119.969 28.296 118.753 30.792H126.529C127.233 30.792 127.585 30.888 127.585 31.08C127.585 31.336 127.105 31.592 126.145 31.848C125.057 32.168 123.905 32.36 122.689 32.424C121.537 32.488 120.449 32.616 119.425 32.808C118.465 33 117.761 33.416 117.313 34.056C116.929 34.504 116.385 35.464 115.681 36.936C114.977 38.408 114.209 40.104 113.377 42.024C112.609 43.88 111.937 45.768 111.361 47.688C110.785 49.544 110.433 51.112 110.305 52.392V52.776C110.305 53.288 110.465 53.704 110.785 54.024C111.105 54.344 111.425 54.504 111.745 54.504C112.577 54.504 113.633 53.992 114.913 52.968C116.257 51.944 117.633 50.728 119.041 49.32C120.449 47.848 121.665 46.504 122.689 45.288C123.137 44.776 123.521 44.296 123.841 43.848C124.225 43.4 124.449 43.112 124.513 42.984C124.641 43.24 124.705 43.432 124.705 43.56C124.705 43.944 124.577 44.36 124.321 44.808C124.129 45.256 123.905 45.64 123.649 45.96C122.433 47.56 120.961 49.256 119.233 51.048C117.505 52.776 115.649 54.248 113.665 55.464C111.745 56.68 109.761 57.288 107.713 57.288ZM124.441 57.192C123.417 57.192 122.489 57 121.657 56.616C120.889 56.168 120.505 55.24 120.505 53.832C120.505 51.592 121.081 49.352 122.233 47.112C123.385 44.808 124.569 42.792 125.785 41.064C126.873 39.592 128.089 38.216 129.433 36.936C130.841 35.592 132.345 34.44 133.945 33.48C134.969 32.84 136.345 32.168 138.073 31.464C139.865 30.696 141.369 30.312 142.585 30.312C143.609 30.312 144.505 30.6 145.273 31.176C146.041 31.688 146.425 32.648 146.425 34.056C146.425 36.232 145.849 38.472 144.697 40.776C143.609 43.016 142.457 45 141.241 46.728C140.665 47.496 140.089 48.232 139.513 48.936C138.937 49.576 138.297 50.248 137.593 50.952C139.961 50.952 142.137 50.28 144.121 48.936C146.105 47.528 147.833 45.832 149.305 43.848L149.497 43.656C149.689 43.656 149.785 43.848 149.785 44.232C149.785 44.68 149.657 45.096 149.401 45.48C148.121 47.272 146.521 48.872 144.601 50.28C142.681 51.624 140.505 52.296 138.073 52.296C137.817 52.296 137.561 52.296 137.305 52.296C137.049 52.296 136.793 52.264 136.537 52.2C132.953 55.528 128.921 57.192 124.441 57.192ZM126.937 55.56C127.833 55.56 128.793 55.24 129.817 54.6C130.905 53.96 131.737 53.352 132.313 52.776C133.401 51.688 134.393 50.536 135.289 49.32C136.185 48.04 137.017 46.76 137.785 45.48C138.681 43.944 139.577 42.12 140.473 40.008C141.369 37.896 141.817 35.912 141.817 34.056C141.817 32.584 141.305 31.848 140.281 31.848C139.449 31.848 138.425 32.2 137.209 32.904C136.057 33.608 135.193 34.248 134.617 34.824C132.441 37.064 130.617 39.496 129.145 42.12C128.313 43.592 127.417 45.32 126.457 47.304C125.497 49.288 125.017 51.112 125.017 52.776C125.017 53.032 125.017 53.288 125.017 53.544C125.081 53.736 125.145 53.96 125.209 54.216C125.465 55.112 126.041 55.56 126.937 55.56ZM148.887 58.44C148.631 58.44 148.631 58.152 148.887 57.576C149.207 57 149.495 56.36 149.751 55.656C150.071 54.952 150.391 54.184 150.711 53.352C151.351 51.816 152.055 50.088 152.823 48.168C153.591 46.248 154.327 44.392 155.031 42.6C155.735 40.744 156.343 39.176 156.855 37.896C157.431 36.552 157.815 35.688 158.007 35.304C157.111 36.264 156.023 37.48 154.743 38.952C153.527 40.36 152.375 41.736 151.287 43.08C150.199 44.424 149.367 45.48 148.791 46.248C148.599 46.504 148.439 46.632 148.311 46.632C148.183 46.632 148.119 46.472 148.119 46.152C148.119 45.64 148.279 45.16 148.599 44.712C149.815 43.176 151.159 41.448 152.631 39.528C154.167 37.608 155.543 35.848 156.759 34.248C157.975 32.584 158.743 31.496 159.063 30.984C159.767 30.856 160.791 30.664 162.135 30.408C163.543 30.152 164.503 29.8 165.015 29.352C165.207 29.16 165.399 29.064 165.591 29.064C165.719 29.064 165.783 29.192 165.783 29.448C165.847 29.64 165.783 29.864 165.591 30.12C165.207 30.568 164.535 31.624 163.575 33.288C162.679 34.888 161.687 36.68 160.599 38.664C159.575 40.648 158.615 42.44 157.719 44.04C158.487 43.016 159.319 42.024 160.215 41.064C161.111 40.104 161.975 39.176 162.807 38.28C163.575 37.512 164.631 36.552 165.975 35.4C167.319 34.248 168.727 33.192 170.199 32.232C171.671 31.272 172.951 30.728 174.039 30.6C174.295 30.536 174.519 30.504 174.711 30.504C174.967 30.504 175.159 30.504 175.287 30.504C176.695 30.504 177.399 31.016 177.399 32.04C177.399 32.808 176.983 33.832 176.151 35.112C175.703 35.816 174.999 37 174.039 38.664C173.143 40.264 172.215 42.024 171.255 43.944C170.359 45.8 169.559 47.56 168.855 49.224C168.215 50.824 167.895 52.008 167.895 52.776C167.895 53.672 168.343 54.12 169.239 54.12C170.327 54.12 171.511 53.576 172.791 52.488C174.135 51.4 175.575 50.024 177.111 48.36C178.647 46.632 180.183 44.808 181.719 42.888C181.847 43.016 181.911 43.24 181.911 43.56C181.911 44.008 181.751 44.456 181.431 44.904C181.175 45.288 180.919 45.64 180.663 45.96C180.023 46.792 179.159 47.848 178.071 49.128C177.047 50.344 175.991 51.56 174.903 52.776C173.815 53.928 172.823 54.856 171.927 55.56C171.287 56.008 170.455 56.488 169.431 57C168.407 57.512 167.383 57.768 166.359 57.768C165.207 57.768 164.407 57.48 163.959 56.904C163.511 56.264 163.287 55.496 163.287 54.6C163.287 53.576 163.479 52.488 163.863 51.336C164.247 50.184 164.663 49.096 165.111 48.072C165.623 46.984 166.007 46.184 166.263 45.672C167.415 43.432 168.471 41.32 169.431 39.336C170.391 37.352 171.063 35.944 171.447 35.112C171.639 34.728 171.735 34.408 171.735 34.152C171.735 33.704 171.383 33.672 170.679 34.056C169.975 34.44 169.111 35.016 168.087 35.784C167.127 36.552 166.231 37.32 165.399 38.088C164.567 38.792 164.023 39.272 163.767 39.528C161.399 42.024 159.319 44.808 157.527 47.88C155.799 50.888 154.327 53.992 153.111 57.192C152.279 57.256 151.447 57.48 150.615 57.864C149.783 58.248 149.207 58.44 148.887 58.44ZM199.966 20.328C199.07 20.328 198.43 20.04 198.046 19.464C197.79 19.144 197.662 18.728 197.662 18.216C197.662 17.192 198.142 16.36 199.102 15.72C199.806 15.336 200.446 15.144 201.022 15.144C201.982 15.144 202.654 15.432 203.038 16.008C203.294 16.328 203.422 16.744 203.422 17.256C203.422 18.28 202.91 19.112 201.886 19.752C201.31 20.136 200.67 20.328 199.966 20.328ZM183.262 57.288C182.622 57.288 182.078 57.16 181.63 56.904C181.246 56.648 181.054 56.168 181.054 55.464C181.054 54.568 181.278 53.512 181.726 52.296C182.238 51.08 182.782 49.864 183.358 48.648C183.998 47.432 184.478 46.44 184.798 45.672C185.246 44.776 185.79 43.624 186.43 42.216C187.134 40.744 187.774 39.368 188.35 38.088C188.99 36.744 189.438 35.816 189.694 35.304C188.798 36.264 187.71 37.48 186.43 38.952C185.214 40.36 184.062 41.736 182.974 43.08C181.886 44.424 181.054 45.48 180.478 46.248C180.286 46.504 180.126 46.632 179.998 46.632C179.87 46.632 179.806 46.472 179.806 46.152C179.806 45.64 179.966 45.16 180.286 44.712C181.502 43.176 182.846 41.448 184.318 39.528C185.854 37.608 187.23 35.848 188.446 34.248C189.662 32.584 190.43 31.496 190.75 30.984C191.454 30.856 192.478 30.664 193.822 30.408C195.23 30.152 196.19 29.8 196.702 29.352C196.894 29.16 197.086 29.064 197.278 29.064C197.406 29.064 197.47 29.192 197.47 29.448C197.534 29.64 197.47 29.864 197.278 30.12C196.894 30.568 196.222 31.656 195.262 33.384C194.302 35.112 193.278 37.032 192.19 39.144C191.166 41.192 190.206 43.048 189.31 44.712C188.414 46.44 187.646 48.104 187.006 49.704C186.366 51.304 186.046 52.456 186.046 53.16C186.046 54.056 186.494 54.504 187.39 54.504C188.222 54.504 189.278 53.992 190.558 52.968C191.902 51.944 193.246 50.728 194.59 49.32C195.934 47.848 197.118 46.504 198.142 45.288C198.462 44.904 198.846 44.456 199.294 43.944C199.806 43.368 200.126 43.016 200.254 42.888C200.382 43.016 200.446 43.24 200.446 43.56C200.382 44.008 200.222 44.456 199.966 44.904C199.71 45.288 199.454 45.64 199.198 45.96C197.854 47.624 196.382 49.352 194.782 51.144C193.182 52.872 191.422 54.344 189.502 55.56C187.582 56.712 185.502 57.288 183.262 57.288Z" fill="white"/>
</svg>
